<svg width="56" height="117" viewBox="0 0 56 117" fill="none" xmlns="http://www.w3.org/2000/svg">
<path d="M38.293 33.761V33.7606C38.293 28.9505 42.0658 25.094 46.7265 25.094C51.3871 25.094 55.16 28.9505 55.16 33.7606V87.875C55.16 103.173 42.9814 115.555 28 115.555C13.0186 115.555 0.84 103.173 0.84 87.875V76.784C0.84 71.9803 4.65448 68.1174 9.33333 68.1174C14.0122 68.1174 17.8267 71.9803 17.8267 76.784V87.875C17.8267 93.5843 22.4311 98.2216 28.0598 98.2216C33.6912 98.2216 38.2688 93.5817 38.269 87.8754C38.269 87.8753 38.269 87.8751 38.269 87.875L38.293 33.761Z" stroke="white" stroke-width="1.68"/>
<path d="M55.1599 9.50658C55.1599 14.3076 51.3428 18.1732 46.6666 18.1732C41.9904 18.1732 38.1733 14.3076 38.1733 9.50658C38.1733 4.70553 41.9904 0.84 46.6666 0.84C51.3428 0.84 55.1599 4.70553 55.1599 9.50658Z" stroke="white" stroke-width="1.68"/>
<path opacity="0.8" d="M55.1599 33.7606C55.1599 38.5617 51.3428 42.4272 46.6666 42.4272C41.9904 42.4272 38.1733 38.5617 38.1733 33.7606C38.1733 28.9596 41.9904 25.094 46.6666 25.094C51.3428 25.094 55.1599 28.9596 55.1599 33.7606Z" stroke="white" stroke-width="1.68"/>
<path opacity="0.8" d="M17.8267 76.6621C17.8267 81.4631 14.0096 85.3287 9.33333 85.3287C4.65709 85.3287 0.84 81.4631 0.84 76.6621C0.84 71.861 4.65709 67.9955 9.33333 67.9955C14.0096 67.9955 17.8267 71.861 17.8267 76.6621Z" stroke="white" stroke-width="1.68"/>
</svg>
